<svg width="37" height="39" viewBox="0 0 256 361" xmlns="http://www.w3.org/2000/svg">
  <path d="M0 0h256v361H0V0z" fill="#F7DF1E"/>
  <path d="M67.4 270.5l20.4-12.5c3.9 6.9 7.5 12.7 16.2 12.7 8.3 0 13.5-3.3 13.5-16.3V155h25.3v99.8c0 26.2-15.4 38.1-37.9 38.1-20.3 0-31.7-10.5-37.4-22.4zm96.2-1.1l20.4-11.9c5.4 8.7 12.3 15.1 24.6 15.1 10.4 0 17-5.2 17-12.3 0-8.6-6.8-11.6-18.2-16.6l-6.3-2.7c-18.2-7.8-30.3-17.7-30.3-38.6 0-19.2 14.6-33.8 37.4-33.8 16.2 0 28 5.6 36.4 20.3l-19.9 12.8c-4.4-7.8-9.1-10.8-16.5-10.8-7.5 0-12.2 4.8-12.2 10.8 0 7.6 4.8 10.7 15.9 15.3l6.3 2.7c21.5 9.3 33.6 18.9 33.6 40.6 0 23.3-18.3 35.2-42.9 35.2-23.7 0-39.1-11.3-46.5-26.1z" fill="#000"/>
</svg>
